<mxfile host="app.diagrams.net" modified="2023-11-25T01:02:15.187Z" agent="Mozilla/5.0 (Windows NT 10.0; Win64; x64) AppleWebKit/537.36 (KHTML, like Gecko) Chrome/119.0.0.0 Safari/537.36" etag="RpIbq6s1fJbBPyGbfsBq" version="22.1.3" type="device">
  <diagram name="Страница — 1" id="LiBK1-6MMZmBtKhaysxW">
    <mxGraphModel dx="1454" dy="1918" grid="1" gridSize="10" guides="1" tooltips="1" connect="1" arrows="1" fold="1" page="1" pageScale="1" pageWidth="827" pageHeight="1169" math="0" shadow="0">
      <root>
        <mxCell id="0" />
        <mxCell id="1" parent="0" />
        <mxCell id="bmCmp-KCfzIyfrpT1t3V-2" value="" style="whiteSpace=wrap;html=1;aspect=fixed;" parent="1" vertex="1">
          <mxGeometry x="210" y="-15" width="340" height="340" as="geometry" />
        </mxCell>
        <mxCell id="bmCmp-KCfzIyfrpT1t3V-5" value="" style="rounded=0;whiteSpace=wrap;html=1;" parent="1" vertex="1">
          <mxGeometry x="250" y="250" width="120" height="60" as="geometry" />
        </mxCell>
        <mxCell id="bmCmp-KCfzIyfrpT1t3V-6" value="" style="whiteSpace=wrap;html=1;aspect=fixed;" parent="1" vertex="1">
          <mxGeometry x="580" width="360" height="360" as="geometry" />
        </mxCell>
        <mxCell id="bmCmp-KCfzIyfrpT1t3V-7" value="" style="rounded=0;whiteSpace=wrap;html=1;" parent="1" vertex="1">
          <mxGeometry x="620" y="40" width="270" height="60" as="geometry" />
        </mxCell>
        <mxCell id="bmCmp-KCfzIyfrpT1t3V-8" value="" style="rounded=0;whiteSpace=wrap;html=1;" parent="1" vertex="1">
          <mxGeometry x="620" y="135" width="120" height="60" as="geometry" />
        </mxCell>
        <mxCell id="bmCmp-KCfzIyfrpT1t3V-10" value="" style="shape=datastore;whiteSpace=wrap;html=1;" parent="1" vertex="1">
          <mxGeometry x="800" y="132.5" width="90" height="95" as="geometry" />
        </mxCell>
        <mxCell id="bmCmp-KCfzIyfrpT1t3V-14" value="Данные" style="text;html=1;strokeColor=none;fillColor=none;align=center;verticalAlign=middle;whiteSpace=wrap;rounded=0;" parent="1" vertex="1">
          <mxGeometry x="277.5" y="265" width="65" height="30" as="geometry" />
        </mxCell>
        <mxCell id="bmCmp-KCfzIyfrpT1t3V-24" value="" style="rounded=0;whiteSpace=wrap;html=1;" parent="1" vertex="1">
          <mxGeometry x="620" y="230" width="160" height="60" as="geometry" />
        </mxCell>
        <mxCell id="bmCmp-KCfzIyfrpT1t3V-25" value="&amp;nbsp;Model-View-Controller (php)" style="text;html=1;strokeColor=none;fillColor=none;align=center;verticalAlign=middle;whiteSpace=wrap;rounded=0;" parent="1" vertex="1">
          <mxGeometry x="692.5" y="55" width="125" height="30" as="geometry" />
        </mxCell>
        <mxCell id="bmCmp-KCfzIyfrpT1t3V-26" value="Роутер" style="text;html=1;strokeColor=none;fillColor=none;align=center;verticalAlign=middle;whiteSpace=wrap;rounded=0;" parent="1" vertex="1">
          <mxGeometry x="650" y="152.5" width="60" height="30" as="geometry" />
        </mxCell>
        <mxCell id="bmCmp-KCfzIyfrpT1t3V-27" value="Сервер (php)" style="text;html=1;strokeColor=none;fillColor=none;align=center;verticalAlign=middle;whiteSpace=wrap;rounded=0;" parent="1" vertex="1">
          <mxGeometry x="670" y="245" width="60" height="30" as="geometry" />
        </mxCell>
        <mxCell id="bmCmp-KCfzIyfrpT1t3V-28" value="MySQL" style="text;html=1;strokeColor=none;fillColor=none;align=center;verticalAlign=middle;whiteSpace=wrap;rounded=0;" parent="1" vertex="1">
          <mxGeometry x="815" y="170" width="60" height="30" as="geometry" />
        </mxCell>
        <mxCell id="bmCmp-KCfzIyfrpT1t3V-29" value="" style="shape=flexArrow;endArrow=classic;html=1;rounded=0;exitX=0.5;exitY=0;exitDx=0;exitDy=0;entryX=0.222;entryY=0.999;entryDx=0;entryDy=0;entryPerimeter=0;" parent="1" source="bmCmp-KCfzIyfrpT1t3V-8" target="bmCmp-KCfzIyfrpT1t3V-7" edge="1">
          <mxGeometry width="50" height="50" relative="1" as="geometry">
            <mxPoint x="640" y="260" as="sourcePoint" />
            <mxPoint x="690" y="210" as="targetPoint" />
          </mxGeometry>
        </mxCell>
        <mxCell id="bmCmp-KCfzIyfrpT1t3V-30" value="" style="shape=flexArrow;endArrow=classic;html=1;rounded=0;exitX=0.25;exitY=0;exitDx=0;exitDy=0;entryX=0.34;entryY=0.996;entryDx=0;entryDy=0;entryPerimeter=0;" parent="1" source="bmCmp-KCfzIyfrpT1t3V-24" target="bmCmp-KCfzIyfrpT1t3V-8" edge="1">
          <mxGeometry width="50" height="50" relative="1" as="geometry">
            <mxPoint x="660" y="240" as="sourcePoint" />
            <mxPoint x="690" y="210" as="targetPoint" />
          </mxGeometry>
        </mxCell>
        <mxCell id="bmCmp-KCfzIyfrpT1t3V-32" value="" style="shape=flexArrow;endArrow=classic;html=1;rounded=0;exitX=0.5;exitY=1;exitDx=0;exitDy=0;entryX=0.847;entryY=-0.039;entryDx=0;entryDy=0;entryPerimeter=0;" parent="1" source="bmCmp-KCfzIyfrpT1t3V-7" target="bmCmp-KCfzIyfrpT1t3V-24" edge="1">
          <mxGeometry width="50" height="50" relative="1" as="geometry">
            <mxPoint x="640" y="260" as="sourcePoint" />
            <mxPoint x="690" y="210" as="targetPoint" />
          </mxGeometry>
        </mxCell>
        <mxCell id="bmCmp-KCfzIyfrpT1t3V-33" value="" style="shape=flexArrow;endArrow=classic;html=1;rounded=0;entryX=0.719;entryY=1.021;entryDx=0;entryDy=0;entryPerimeter=0;exitX=0.15;exitY=0.05;exitDx=0;exitDy=0;exitPerimeter=0;" parent="1" source="bmCmp-KCfzIyfrpT1t3V-10" target="bmCmp-KCfzIyfrpT1t3V-7" edge="1">
          <mxGeometry width="50" height="50" relative="1" as="geometry">
            <mxPoint x="814" y="130" as="sourcePoint" />
            <mxPoint x="730" y="210" as="targetPoint" />
          </mxGeometry>
        </mxCell>
        <mxCell id="bmCmp-KCfzIyfrpT1t3V-34" value="" style="shape=flexArrow;endArrow=classic;html=1;rounded=0;exitX=0.883;exitY=0.999;exitDx=0;exitDy=0;exitPerimeter=0;entryX=0.649;entryY=0.079;entryDx=0;entryDy=0;entryPerimeter=0;" parent="1" source="bmCmp-KCfzIyfrpT1t3V-7" target="bmCmp-KCfzIyfrpT1t3V-10" edge="1">
          <mxGeometry width="50" height="50" relative="1" as="geometry">
            <mxPoint x="880" y="132.5" as="sourcePoint" />
            <mxPoint x="930" y="82.5" as="targetPoint" />
          </mxGeometry>
        </mxCell>
        <mxCell id="bmCmp-KCfzIyfrpT1t3V-35" value="" style="shape=flexArrow;endArrow=classic;html=1;rounded=0;exitX=1;exitY=0.25;exitDx=0;exitDy=0;entryX=0;entryY=0.5;entryDx=0;entryDy=0;" parent="1" edge="1">
          <mxGeometry width="50" height="50" relative="1" as="geometry">
            <mxPoint x="375" y="262.5" as="sourcePoint" />
            <mxPoint x="620" y="257.5" as="targetPoint" />
          </mxGeometry>
        </mxCell>
        <mxCell id="bmCmp-KCfzIyfrpT1t3V-36" value="" style="shape=flexArrow;endArrow=classic;html=1;rounded=0;exitX=0;exitY=1;exitDx=0;exitDy=0;entryX=1;entryY=0.75;entryDx=0;entryDy=0;" parent="1" edge="1">
          <mxGeometry width="50" height="50" relative="1" as="geometry">
            <mxPoint x="620" y="285" as="sourcePoint" />
            <mxPoint x="375" y="290" as="targetPoint" />
          </mxGeometry>
        </mxCell>
        <mxCell id="bmCmp-KCfzIyfrpT1t3V-37" value="HTTP (post)" style="text;html=1;strokeColor=none;fillColor=none;align=center;verticalAlign=middle;whiteSpace=wrap;rounded=0;" parent="1" vertex="1">
          <mxGeometry x="490" y="220" width="60" height="30" as="geometry" />
        </mxCell>
        <mxCell id="bmCmp-KCfzIyfrpT1t3V-38" value="JSON" style="text;html=1;strokeColor=none;fillColor=none;align=center;verticalAlign=middle;whiteSpace=wrap;rounded=0;" parent="1" vertex="1">
          <mxGeometry x="500" y="295" width="60" height="30" as="geometry" />
        </mxCell>
        <mxCell id="bmCmp-KCfzIyfrpT1t3V-39" value="Frontend" style="text;html=1;strokeColor=none;fillColor=none;align=center;verticalAlign=middle;whiteSpace=wrap;rounded=0;" parent="1" vertex="1">
          <mxGeometry x="290" width="60" height="30" as="geometry" />
        </mxCell>
        <mxCell id="bmCmp-KCfzIyfrpT1t3V-40" value="Backend" style="text;html=1;strokeColor=none;fillColor=none;align=center;verticalAlign=middle;whiteSpace=wrap;rounded=0;" parent="1" vertex="1">
          <mxGeometry x="730" width="60" height="30" as="geometry" />
        </mxCell>
        <mxCell id="bmCmp-KCfzIyfrpT1t3V-41" value="" style="rounded=0;whiteSpace=wrap;html=1;" parent="1" vertex="1">
          <mxGeometry x="148.75" y="650" width="120" height="60" as="geometry" />
        </mxCell>
        <mxCell id="bmCmp-KCfzIyfrpT1t3V-42" value="" style="rounded=0;whiteSpace=wrap;html=1;" parent="1" vertex="1">
          <mxGeometry x="368.75" y="650" width="120" height="60" as="geometry" />
        </mxCell>
        <mxCell id="bmCmp-KCfzIyfrpT1t3V-44" value="" style="rounded=0;whiteSpace=wrap;html=1;" parent="1" vertex="1">
          <mxGeometry x="588.75" y="650" width="120" height="60" as="geometry" />
        </mxCell>
        <mxCell id="bmCmp-KCfzIyfrpT1t3V-45" value="" style="shape=cylinder3;whiteSpace=wrap;html=1;boundedLbl=1;backgroundOutline=1;size=15;" parent="1" vertex="1">
          <mxGeometry x="806.25" y="640" width="90" height="75" as="geometry" />
        </mxCell>
        <mxCell id="bmCmp-KCfzIyfrpT1t3V-46" value="" style="rounded=0;whiteSpace=wrap;html=1;" parent="1" vertex="1">
          <mxGeometry x="791.25" y="780" width="120" height="60" as="geometry" />
        </mxCell>
        <mxCell id="bmCmp-KCfzIyfrpT1t3V-47" value="" style="shape=cube;whiteSpace=wrap;html=1;boundedLbl=1;backgroundOutline=1;darkOpacity=0.05;darkOpacity2=0.1;" parent="1" vertex="1">
          <mxGeometry x="578.75" y="930" width="120" height="80" as="geometry" />
        </mxCell>
        <mxCell id="bmCmp-KCfzIyfrpT1t3V-48" value="" style="endArrow=classic;html=1;rounded=0;exitX=1.024;exitY=0.593;exitDx=0;exitDy=0;exitPerimeter=0;" parent="1" source="bmCmp-KCfzIyfrpT1t3V-41" edge="1">
          <mxGeometry width="50" height="50" relative="1" as="geometry">
            <mxPoint x="298.75" y="684.63" as="sourcePoint" />
            <mxPoint x="368.75" y="684.63" as="targetPoint" />
          </mxGeometry>
        </mxCell>
        <mxCell id="bmCmp-KCfzIyfrpT1t3V-49" value="" style="endArrow=classic;html=1;rounded=0;exitX=1;exitY=0.5;exitDx=0;exitDy=0;" parent="1" source="bmCmp-KCfzIyfrpT1t3V-42" edge="1">
          <mxGeometry width="50" height="50" relative="1" as="geometry">
            <mxPoint x="538.75" y="730" as="sourcePoint" />
            <mxPoint x="588.75" y="680" as="targetPoint" />
          </mxGeometry>
        </mxCell>
        <mxCell id="bmCmp-KCfzIyfrpT1t3V-50" value="" style="endArrow=classic;startArrow=classic;html=1;rounded=0;exitX=1;exitY=0.667;exitDx=0;exitDy=0;exitPerimeter=0;" parent="1" source="bmCmp-KCfzIyfrpT1t3V-44" edge="1">
          <mxGeometry width="50" height="50" relative="1" as="geometry">
            <mxPoint x="753.75" y="740" as="sourcePoint" />
            <mxPoint x="803.75" y="690" as="targetPoint" />
          </mxGeometry>
        </mxCell>
        <mxCell id="bmCmp-KCfzIyfrpT1t3V-52" value="" style="endArrow=classic;html=1;rounded=0;exitX=0;exitY=0.5;exitDx=0;exitDy=0;entryX=0.5;entryY=1;entryDx=0;entryDy=0;" parent="1" source="bmCmp-KCfzIyfrpT1t3V-46" target="bmCmp-KCfzIyfrpT1t3V-44" edge="1">
          <mxGeometry width="50" height="50" relative="1" as="geometry">
            <mxPoint x="498.75" y="870" as="sourcePoint" />
            <mxPoint x="548.75" y="820" as="targetPoint" />
          </mxGeometry>
        </mxCell>
        <mxCell id="bmCmp-KCfzIyfrpT1t3V-53" value="" style="endArrow=classic;html=1;rounded=0;exitX=0.5;exitY=1;exitDx=0;exitDy=0;entryX=0.579;entryY=-0.035;entryDx=0;entryDy=0;entryPerimeter=0;" parent="1" source="bmCmp-KCfzIyfrpT1t3V-44" target="bmCmp-KCfzIyfrpT1t3V-47" edge="1">
          <mxGeometry width="50" height="50" relative="1" as="geometry">
            <mxPoint x="498.75" y="870" as="sourcePoint" />
            <mxPoint x="638.75" y="930" as="targetPoint" />
          </mxGeometry>
        </mxCell>
        <mxCell id="bmCmp-KCfzIyfrpT1t3V-54" value="" style="endArrow=classic;html=1;rounded=0;exitX=-0.008;exitY=0.5;exitDx=0;exitDy=0;exitPerimeter=0;entryX=0.917;entryY=1;entryDx=0;entryDy=0;entryPerimeter=0;" parent="1" source="bmCmp-KCfzIyfrpT1t3V-47" target="bmCmp-KCfzIyfrpT1t3V-41" edge="1">
          <mxGeometry width="50" height="50" relative="1" as="geometry">
            <mxPoint x="498.75" y="870" as="sourcePoint" />
            <mxPoint x="548.75" y="820" as="targetPoint" />
            <Array as="points">
              <mxPoint x="258.75" y="970" />
            </Array>
          </mxGeometry>
        </mxCell>
        <mxCell id="bmCmp-KCfzIyfrpT1t3V-55" value="" style="shape=flexArrow;endArrow=classic;html=1;rounded=0;" parent="1" edge="1">
          <mxGeometry width="50" height="50" relative="1" as="geometry">
            <mxPoint x="208.38" y="575" as="sourcePoint" />
            <mxPoint x="208.38" y="650" as="targetPoint" />
          </mxGeometry>
        </mxCell>
        <mxCell id="bmCmp-KCfzIyfrpT1t3V-56" value="" style="shape=flexArrow;endArrow=classic;html=1;rounded=0;" parent="1" edge="1">
          <mxGeometry width="50" height="50" relative="1" as="geometry">
            <mxPoint x="208.38" y="710" as="sourcePoint" />
            <mxPoint x="208.75" y="1050" as="targetPoint" />
          </mxGeometry>
        </mxCell>
        <mxCell id="bmCmp-KCfzIyfrpT1t3V-57" value="Запрос" style="text;html=1;strokeColor=none;fillColor=none;align=center;verticalAlign=middle;whiteSpace=wrap;rounded=0;" parent="1" vertex="1">
          <mxGeometry x="178.75" y="540" width="60" height="30" as="geometry" />
        </mxCell>
        <mxCell id="bmCmp-KCfzIyfrpT1t3V-58" value="ответ" style="text;html=1;strokeColor=none;fillColor=none;align=center;verticalAlign=middle;whiteSpace=wrap;rounded=0;" parent="1" vertex="1">
          <mxGeometry x="178.75" y="1060" width="60" height="30" as="geometry" />
        </mxCell>
        <mxCell id="bmCmp-KCfzIyfrpT1t3V-60" value="БД" style="text;html=1;strokeColor=none;fillColor=none;align=center;verticalAlign=middle;whiteSpace=wrap;rounded=0;" parent="1" vertex="1">
          <mxGeometry x="818.25" y="678" width="60" height="30" as="geometry" />
        </mxCell>
        <mxCell id="bmCmp-KCfzIyfrpT1t3V-61" value="Контроллер" style="text;html=1;strokeColor=none;fillColor=none;align=center;verticalAlign=middle;whiteSpace=wrap;rounded=0;" parent="1" vertex="1">
          <mxGeometry x="608.75" y="660" width="80" height="40" as="geometry" />
        </mxCell>
        <mxCell id="bmCmp-KCfzIyfrpT1t3V-62" value="Модель" style="text;html=1;strokeColor=none;fillColor=none;align=center;verticalAlign=middle;whiteSpace=wrap;rounded=0;" parent="1" vertex="1">
          <mxGeometry x="808.75" y="795" width="80" height="35" as="geometry" />
        </mxCell>
        <mxCell id="bmCmp-KCfzIyfrpT1t3V-63" value="Роутер" style="text;html=1;strokeColor=none;fillColor=none;align=center;verticalAlign=middle;whiteSpace=wrap;rounded=0;" parent="1" vertex="1">
          <mxGeometry x="378.75" y="660" width="100" height="40" as="geometry" />
        </mxCell>
        <mxCell id="bmCmp-KCfzIyfrpT1t3V-64" value="HTML" style="text;html=1;strokeColor=none;fillColor=none;align=center;verticalAlign=middle;whiteSpace=wrap;rounded=0;" parent="1" vertex="1">
          <mxGeometry x="608.75" y="960" width="80" height="40" as="geometry" />
        </mxCell>
        <mxCell id="bmCmp-KCfzIyfrpT1t3V-65" value="Сервер" style="text;html=1;strokeColor=none;fillColor=none;align=center;verticalAlign=middle;whiteSpace=wrap;rounded=0;" parent="1" vertex="1">
          <mxGeometry x="163.75" y="665" width="90" height="35" as="geometry" />
        </mxCell>
        <mxCell id="BilCo9tsSrnKRInM3Iep-1" value="" style="whiteSpace=wrap;html=1;aspect=fixed;" parent="1" vertex="1">
          <mxGeometry x="348" y="1280" width="380" height="380" as="geometry" />
        </mxCell>
        <mxCell id="BilCo9tsSrnKRInM3Iep-2" value="" style="whiteSpace=wrap;html=1;aspect=fixed;" parent="1" vertex="1">
          <mxGeometry x="840" y="1280" width="380" height="380" as="geometry" />
        </mxCell>
        <mxCell id="BilCo9tsSrnKRInM3Iep-3" value="Frontend" style="text;html=1;strokeColor=none;fillColor=none;align=center;verticalAlign=middle;whiteSpace=wrap;rounded=0;" parent="1" vertex="1">
          <mxGeometry x="492.5" y="1290" width="60" height="30" as="geometry" />
        </mxCell>
        <mxCell id="BilCo9tsSrnKRInM3Iep-5" value="Backend" style="text;html=1;strokeColor=none;fillColor=none;align=center;verticalAlign=middle;whiteSpace=wrap;rounded=0;" parent="1" vertex="1">
          <mxGeometry x="1010" y="1290" width="60" height="30" as="geometry" />
        </mxCell>
        <mxCell id="BilCo9tsSrnKRInM3Iep-6" value="Данные" style="rounded=0;whiteSpace=wrap;html=1;" parent="1" vertex="1">
          <mxGeometry x="470" y="1440" width="120" height="60" as="geometry" />
        </mxCell>
        <mxCell id="BilCo9tsSrnKRInM3Iep-8" value="Сервер" style="rounded=0;whiteSpace=wrap;html=1;" parent="1" vertex="1">
          <mxGeometry x="880" y="1440" width="120" height="60" as="geometry" />
        </mxCell>
        <mxCell id="BilCo9tsSrnKRInM3Iep-9" value="База данных" style="shape=cylinder3;whiteSpace=wrap;html=1;boundedLbl=1;backgroundOutline=1;size=15;" parent="1" vertex="1">
          <mxGeometry x="1050" y="1400" width="120" height="140" as="geometry" />
        </mxCell>
        <mxCell id="BilCo9tsSrnKRInM3Iep-10" value="" style="shape=flexArrow;endArrow=classic;html=1;rounded=0;exitX=1;exitY=0.5;exitDx=0;exitDy=0;" parent="1" edge="1">
          <mxGeometry width="50" height="50" relative="1" as="geometry">
            <mxPoint x="590" y="1460" as="sourcePoint" />
            <mxPoint x="880" y="1460" as="targetPoint" />
          </mxGeometry>
        </mxCell>
        <mxCell id="BilCo9tsSrnKRInM3Iep-11" value="" style="shape=flexArrow;endArrow=classic;html=1;rounded=0;exitX=0;exitY=0.75;exitDx=0;exitDy=0;entryX=1;entryY=0.75;entryDx=0;entryDy=0;" parent="1" source="BilCo9tsSrnKRInM3Iep-8" target="BilCo9tsSrnKRInM3Iep-6" edge="1">
          <mxGeometry width="50" height="50" relative="1" as="geometry">
            <mxPoint x="810" y="1610" as="sourcePoint" />
            <mxPoint x="860" y="1560" as="targetPoint" />
          </mxGeometry>
        </mxCell>
        <mxCell id="BilCo9tsSrnKRInM3Iep-12" value="HTTP" style="text;html=1;strokeColor=none;fillColor=none;align=center;verticalAlign=middle;whiteSpace=wrap;rounded=0;" parent="1" vertex="1">
          <mxGeometry x="742.5" y="1420" width="60" height="30" as="geometry" />
        </mxCell>
        <mxCell id="BilCo9tsSrnKRInM3Iep-13" value="JSON" style="text;html=1;strokeColor=none;fillColor=none;align=center;verticalAlign=middle;whiteSpace=wrap;rounded=0;" parent="1" vertex="1">
          <mxGeometry x="742.5" y="1500" width="60" height="30" as="geometry" />
        </mxCell>
        <mxCell id="IDKLWWG7pBTtxqZEpm8W-1" value="" style="rounded=0;whiteSpace=wrap;html=1;" vertex="1" parent="1">
          <mxGeometry x="250" y="152.5" width="120" height="60" as="geometry" />
        </mxCell>
        <mxCell id="IDKLWWG7pBTtxqZEpm8W-2" value="" style="shape=flexArrow;endArrow=classic;html=1;rounded=0;exitX=0.25;exitY=0;exitDx=0;exitDy=0;entryX=0.25;entryY=1;entryDx=0;entryDy=0;" edge="1" parent="1" source="bmCmp-KCfzIyfrpT1t3V-5" target="IDKLWWG7pBTtxqZEpm8W-1">
          <mxGeometry width="50" height="50" relative="1" as="geometry">
            <mxPoint x="390" y="232.5" as="sourcePoint" />
            <mxPoint x="440" y="182.5" as="targetPoint" />
          </mxGeometry>
        </mxCell>
        <mxCell id="IDKLWWG7pBTtxqZEpm8W-3" value="" style="shape=flexArrow;endArrow=classic;html=1;rounded=0;exitX=0.75;exitY=1;exitDx=0;exitDy=0;entryX=0.75;entryY=0;entryDx=0;entryDy=0;" edge="1" parent="1" source="IDKLWWG7pBTtxqZEpm8W-1" target="bmCmp-KCfzIyfrpT1t3V-5">
          <mxGeometry width="50" height="50" relative="1" as="geometry">
            <mxPoint x="580" y="270" as="sourcePoint" />
            <mxPoint x="630" y="220" as="targetPoint" />
          </mxGeometry>
        </mxCell>
        <mxCell id="IDKLWWG7pBTtxqZEpm8W-4" value="HTML/CSS" style="text;html=1;strokeColor=none;fillColor=none;align=center;verticalAlign=middle;whiteSpace=wrap;rounded=0;" vertex="1" parent="1">
          <mxGeometry x="280" y="165" width="60" height="30" as="geometry" />
        </mxCell>
      </root>
    </mxGraphModel>
  </diagram>
</mxfile>
